<?xml version="1.0" encoding="iso-8859-1"?>
<!-- Uploaded to: SVG Repo, www.svgrepo.com, Generator: SVG Repo Mixer Tools -->
<svg fill="#000000" version="1.1" id="Layer_1" xmlns="http://www.w3.org/2000/svg" xmlns:xlink="http://www.w3.org/1999/xlink" 
	 viewBox="0 0 512 512" xml:space="preserve">
<g>
	<g>
		<path d="M288.798,127.064c1.501-3.578,2.339-7.498,2.339-11.613c0-16.608-13.51-30.118-30.118-30.118
			c-16.608,0-30.118,13.51-30.118,30.118c0,4.115,0.84,8.034,2.338,11.613C107.879,140.934,10.039,247.471,10.039,376.471
			c0,5.549,4.495,10.039,10.039,10.039h481.882c5.544,0,10.039-4.49,10.039-10.039C512,247.471,414.161,140.936,288.798,127.064z
			 M261.02,105.412c5.534,0,10.039,4.5,10.039,10.039s-4.505,10.039-10.039,10.039c-5.534,0-10.039-4.5-10.039-10.039
			S255.485,105.412,261.02,105.412z M30.333,366.431c5.275-122.676,106.73-220.863,230.686-220.863s225.412,98.186,230.686,220.863
			H30.333z"/>
	</g>
</g>
<g>
	<g>
		<rect y="406.588" width="512" height="20.078"/>
	</g>
</g>
</svg>