<?xml version="1.0" encoding="iso-8859-1"?>
<!-- Uploaded to: SVG Repo, www.svgrepo.com, Generator: SVG Repo Mixer Tools -->
<svg fill="#000000" height="800px" width="800px" version="1.1" id="Layer_1" xmlns="http://www.w3.org/2000/svg" xmlns:xlink="http://www.w3.org/1999/xlink" 
	 viewBox="0 0 512.005 512.005" xml:space="preserve">
<g>
	<g>
		<path d="M496.326,128.335L373.414,156.7L508.247,21.867c5-5,5-13.098,0-18.099c-5-5-13.098-5-18.099,0L355.315,138.601
			L383.68,15.689c1.587-6.886-2.714-13.764-9.6-15.351c-6.81-1.613-13.738,2.714-15.351,9.6l-29.806,129.175l-54.809-54.8
			c-4.838-4.83-11.358-7.501-18.107-7.501c-1.041,0-2.082,0.06-3.132,0.188c-7.825,0.964-14.771,5.478-18.824,12.237L3.654,473.23
			c-6.042,10.069-4.454,22.963,3.848,31.274c4.932,4.932,11.494,7.501,18.107,7.501c4.523,0,9.071-1.195,13.158-3.652
			l383.994-230.396c6.758-4.053,11.272-10.999,12.237-18.824s-1.732-15.658-7.304-21.231l-54.809-54.809l129.175-29.806
			c6.886-1.587,11.187-8.465,9.6-15.351C510.073,131.049,503.204,126.74,496.326,128.335z M409.604,256.009l-164.682,98.814
			l-31.061-31.061c-5-5-13.098-5-18.099,0c-5,5-5,13.098,0,18.099L222.3,368.4L25.61,486.405l175.613-292.68l45.738,45.738
			c2.5,2.5,5.777,3.746,9.054,3.746c3.277,0,6.553-1.246,9.054-3.746c5-5,5-13.098,0-18.099l-50.26-50.26l41.198-68.692
			L409.604,256.009z"/>
	</g>
</g>
</svg>