<?xml version="1.0" encoding="iso-8859-1"?>
<!-- Uploaded to: SVG Repo, www.svgrepo.com, Generator: SVG Repo Mixer Tools -->
<svg fill="#000000" height="800px" width="800px" version="1.1" id="Layer_1" xmlns="http://www.w3.org/2000/svg" xmlns:xlink="http://www.w3.org/1999/xlink" 
	 viewBox="0 0 511.999 511.999" xml:space="preserve">
<g>
	<g>
		<path d="M354.447,157.898c-0.374-0.919-0.753-1.842-1.134-2.765c-1.625-3.938-6.135-5.81-10.072-4.187
			c-3.938,1.625-5.812,6.133-4.187,10.072c0.373,0.903,0.742,1.804,1.109,2.704c1.22,2.991,4.102,4.803,7.145,4.803
			c0.97,0,1.955-0.184,2.908-0.573C354.159,166.344,356.054,161.843,354.447,157.898z"/>
	</g>
</g>
<g>
	<g>
		<path d="M363.621,181.776c-1.442-4.007-5.858-6.088-9.869-4.646c-4.007,1.443-6.088,5.86-4.646,9.869
			c25.14,69.855,28.269,123.081,9.299,158.2c-16.341,30.255-48.188,46.355-94.695,47.938v-55.788l48.126-48.126
			c3.012-3.012,3.012-7.896,0-10.907c-3.012-3.012-7.896-3.012-10.907,0l-37.219,37.219v-49.145l48.126-48.126
			c3.012-3.012,3.012-7.896,0-10.907c-3.012-3.012-7.896-3.012-10.907,0l-37.219,37.219v-82.151c0-4.259-3.453-7.713-7.713-7.713
			c-4.259,0-7.713,3.453-7.713,7.713v83.182l-38.251-38.251c-3.012-3.012-7.896-3.012-10.907,0c-3.012,3.012-3.012,7.896,0,10.907
			l49.158,49.158v49.145l-38.251-38.251c-3.012-3.012-7.896-3.012-10.907,0c-3.012,3.012-3.012,7.896,0,10.907l49.158,49.158v54.763
			c-46.506-1.582-78.351-17.681-94.694-47.937c-22.83-42.266-13.774-110.176,26.917-201.844
			c29.571-66.62,64.88-120.739,66.368-123.01c2.023-3.085,5.433-4.927,9.122-4.927c3.689,0,7.099,1.842,9.121,4.928
			c1.418,2.163,35.063,53.69,64.235,118.244c1.754,3.881,6.322,5.608,10.204,3.852c3.882-1.754,5.607-6.322,3.852-10.204
			c-29.664-65.641-63.948-118.148-65.392-120.35C273.136,4.447,264.904,0,255.999,0c-8.906,0-17.139,4.447-22.023,11.895
			c-1.517,2.314-37.491,57.454-67.566,125.208c-42.73,96.262-51.609,168.743-26.39,215.433
			c19.207,35.559,55.619,54.383,108.267,56.039v95.712c0,4.259,3.453,7.713,7.713,7.713c4.259,0,7.713-3.453,7.713-7.713V408.57
			c52.651-1.657,89.06-20.481,108.267-56.04C393.121,313.385,390.309,255.935,363.621,181.776z"/>
	</g>
</g>
<g>
	<g>
		<path d="M284.738,104.397c-6.916-13.457-14.331-27.152-22.04-40.706c-2.106-3.703-6.815-4.998-10.517-2.891
			c-3.703,2.106-4.997,6.814-2.891,10.517c7.602,13.364,14.912,26.866,21.728,40.13c1.367,2.66,4.067,4.188,6.866,4.188
			c1.187,0,2.391-0.275,3.519-0.854C285.191,112.836,286.685,108.185,284.738,104.397z"/>
	</g>
</g>
<g>
	<g>
		<path d="M307.537,151.961c-1.491-3.369-3.045-6.814-4.617-10.237c-1.776-3.871-6.355-5.569-10.227-3.79
			c-3.871,1.777-5.567,6.356-3.789,10.227c1.542,3.36,3.066,6.74,4.53,10.045c1.275,2.88,4.098,4.593,7.057,4.593
			c1.043,0,2.103-0.213,3.117-0.662C307.502,160.411,309.262,155.856,307.537,151.961z"/>
	</g>
</g>
</svg>