<svg id="svg" version="1.1" xmlns="http://www.w3.org/2000/svg" xmlns:xlink="http://www.w3.org/1999/xlink" width="400" height="400" viewBox="0, 0, 400,400"><g id="svgg"><path id="path0" d="M188.400 16.870 C 187.190 17.030,184.760 17.191,183.000 17.228 C 181.240 17.265,179.698 17.455,179.574 17.651 C 179.450 17.847,178.100 18.025,176.574 18.046 C 175.048 18.068,173.527 18.230,173.193 18.407 C 172.860 18.583,171.690 18.774,170.593 18.831 C 169.497 18.888,168.420 19.068,168.200 19.232 C 167.980 19.395,166.900 19.579,165.800 19.640 C 164.700 19.700,163.530 19.874,163.200 20.026 C 161.946 20.602,159.706 21.200,158.800 21.200 C 158.281 21.200,157.304 21.368,156.628 21.574 C 154.732 22.152,151.844 22.935,151.400 22.992 C 150.690 23.082,148.622 23.653,147.800 23.986 C 146.873 24.360,144.077 25.199,143.200 25.365 C 142.541 25.490,141.434 25.881,140.200 26.425 C 139.760 26.619,139.130 26.827,138.800 26.889 C 138.470 26.950,138.100 27.134,137.978 27.298 C 137.855 27.462,137.270 27.636,136.678 27.685 C 136.085 27.734,135.600 27.898,135.600 28.048 C 135.600 28.401,133.313 29.200,132.302 29.200 C 131.874 29.200,131.042 29.543,130.455 29.961 C 129.867 30.380,129.029 30.785,128.593 30.861 C 128.157 30.938,127.710 31.092,127.600 31.205 C 127.221 31.595,123.748 33.249,123.115 33.342 C 122.766 33.393,122.193 33.674,121.840 33.967 C 121.488 34.259,121.200 34.364,121.200 34.200 C 121.200 34.036,120.975 34.087,120.700 34.313 C 119.834 35.025,115.697 37.200,115.210 37.200 C 114.954 37.200,113.959 37.740,113.000 38.400 C 112.041 39.060,110.973 39.600,110.628 39.600 C 110.283 39.600,110.000 39.750,110.000 39.932 C 110.000 40.115,109.505 40.519,108.900 40.831 C 108.295 41.142,106.720 42.071,105.400 42.894 C 104.080 43.718,102.775 44.394,102.500 44.396 C 102.225 44.398,102.000 44.580,102.000 44.800 C 102.000 45.020,101.764 45.200,101.475 45.200 C 101.187 45.200,100.564 45.560,100.092 46.000 C 99.620 46.440,99.084 46.800,98.902 46.800 C 98.719 46.800,97.947 47.333,97.185 47.984 C 96.423 48.635,95.618 49.175,95.396 49.184 C 95.174 49.193,94.768 49.560,94.493 50.000 C 94.218 50.440,93.759 50.800,93.472 50.800 C 93.185 50.800,92.601 51.115,92.174 51.500 C 91.747 51.885,90.318 52.996,88.998 53.969 C 87.679 54.942,86.323 56.022,85.985 56.369 C 85.646 56.716,84.863 57.287,84.245 57.638 C 83.121 58.276,78.935 62.001,74.060 66.700 C 72.634 68.075,71.362 69.215,71.233 69.233 C 71.105 69.251,69.920 70.501,68.600 72.010 C 67.280 73.520,66.020 74.775,65.800 74.800 C 65.580 74.825,64.140 76.449,62.600 78.408 C 61.060 80.367,59.575 81.977,59.300 81.985 C 59.025 81.993,58.800 82.191,58.800 82.426 C 58.800 82.660,58.305 83.393,57.700 84.056 C 57.095 84.719,56.195 85.706,55.700 86.249 C 55.205 86.792,54.800 87.453,54.800 87.718 C 54.799 87.983,54.329 88.740,53.754 89.400 C 53.179 90.060,52.414 91.050,52.054 91.600 C 51.395 92.607,50.951 93.176,49.300 95.134 C 48.806 95.720,48.401 96.331,48.400 96.492 C 48.400 96.652,47.681 97.732,46.802 98.892 C 45.923 100.051,45.203 101.225,45.202 101.500 C 45.201 101.775,45.050 102.000,44.868 102.000 C 44.685 102.000,44.280 102.495,43.968 103.100 C 43.655 103.705,43.085 104.549,42.700 104.975 C 42.315 105.402,42.000 106.071,42.000 106.462 C 42.000 106.852,41.441 107.808,40.759 108.586 C 40.076 109.364,39.630 110.000,39.769 110.000 C 39.907 110.000,39.741 110.540,39.400 111.200 C 39.059 111.860,38.604 112.400,38.390 112.400 C 38.175 112.400,38.000 112.749,38.000 113.176 C 38.000 113.603,37.817 114.066,37.593 114.204 C 37.370 114.342,37.283 114.610,37.400 114.800 C 37.517 114.990,37.431 115.257,37.208 115.395 C 36.844 115.620,36.030 117.255,34.367 121.100 C 34.058 121.815,33.669 122.400,33.502 122.400 C 33.336 122.400,33.200 122.653,33.200 122.962 C 33.200 123.271,32.840 124.261,32.400 125.162 C 31.960 126.063,31.240 127.537,30.800 128.438 C 30.360 129.339,30.000 130.419,30.000 130.838 C 30.000 131.257,29.820 131.600,29.600 131.600 C 29.380 131.600,29.200 132.050,29.200 132.600 C 29.200 133.150,29.059 133.600,28.887 133.600 C 28.715 133.600,28.335 134.410,28.043 135.400 C 27.751 136.390,27.352 137.200,27.156 137.200 C 26.960 137.200,26.800 137.819,26.800 138.576 C 26.800 139.333,26.620 140.064,26.400 140.200 C 26.180 140.336,26.000 140.887,26.000 141.424 C 26.000 141.961,25.820 142.400,25.600 142.400 C 25.380 142.400,25.200 142.940,25.200 143.600 C 25.200 144.260,25.059 144.800,24.887 144.800 C 24.715 144.800,24.534 145.287,24.485 145.882 C 24.436 146.478,24.216 147.144,23.998 147.362 C 23.779 147.581,23.600 148.166,23.600 148.661 C 23.600 149.157,23.398 150.066,23.150 150.681 C 22.903 151.297,22.555 152.160,22.377 152.600 C 22.200 153.040,21.969 153.940,21.865 154.600 C 21.594 156.323,21.211 158.106,20.963 158.800 C 20.845 159.130,20.650 160.120,20.531 161.000 C 20.411 161.880,20.188 162.780,20.035 163.000 C 19.883 163.220,19.705 164.030,19.639 164.800 C 19.573 165.570,19.386 166.470,19.222 166.800 C 19.058 167.130,18.886 168.296,18.839 169.391 C 18.792 170.486,18.628 171.476,18.473 171.591 C 18.319 171.706,18.133 172.880,18.061 174.200 C 17.988 175.520,17.765 176.771,17.564 176.980 C 17.364 177.189,17.200 179.304,17.200 181.680 C 17.200 184.355,17.044 186.000,16.791 186.000 C 16.520 186.000,16.398 190.766,16.429 200.200 C 16.454 208.010,16.611 214.400,16.778 214.400 C 16.944 214.400,17.209 215.975,17.366 217.900 C 17.778 222.941,18.295 227.528,18.684 229.600 C 18.870 230.590,19.017 231.760,19.011 232.200 C 19.005 232.640,19.122 233.092,19.271 233.205 C 19.419 233.318,19.639 234.128,19.759 235.005 C 19.879 235.882,20.153 237.410,20.367 238.400 C 20.581 239.390,20.922 240.965,21.124 241.900 C 21.327 242.835,21.405 243.600,21.297 243.600 C 21.190 243.600,21.276 243.825,21.489 244.100 C 21.702 244.375,22.106 245.500,22.387 246.600 C 22.669 247.700,23.143 249.360,23.441 250.289 C 23.739 251.218,23.878 252.253,23.749 252.589 C 23.620 252.925,23.714 253.200,23.957 253.200 C 24.201 253.200,24.400 253.562,24.400 254.005 C 24.400 254.448,24.580 255.168,24.800 255.605 C 25.020 256.042,25.380 256.758,25.600 257.195 C 25.820 257.632,26.000 258.316,26.000 258.715 C 26.000 259.114,26.175 259.615,26.389 259.829 C 26.602 260.042,26.845 260.573,26.928 261.009 C 27.012 261.444,27.214 262.160,27.377 262.600 C 27.541 263.040,27.861 263.897,28.087 264.504 C 28.314 265.111,28.500 266.056,28.500 266.604 C 28.500 267.152,28.657 267.600,28.850 267.600 C 29.043 267.600,29.200 267.945,29.200 268.367 C 29.200 268.788,29.388 269.196,29.618 269.273 C 29.848 269.349,30.067 269.859,30.105 270.406 C 30.143 270.953,30.495 271.749,30.887 272.175 C 31.279 272.602,31.600 273.204,31.600 273.514 C 31.600 273.823,31.958 274.579,32.396 275.194 C 32.833 275.809,33.245 276.646,33.310 277.056 C 33.433 277.827,34.050 279.118,35.535 281.712 C 36.011 282.544,36.400 283.489,36.400 283.812 C 36.400 284.135,36.580 284.400,36.800 284.400 C 37.020 284.400,37.200 284.670,37.200 285.000 C 37.200 285.330,37.380 285.600,37.600 285.600 C 37.820 285.600,38.000 285.949,38.000 286.376 C 38.000 286.803,38.180 287.264,38.400 287.400 C 38.620 287.536,38.800 287.997,38.800 288.424 C 38.800 288.851,38.980 289.200,39.200 289.200 C 39.420 289.200,39.600 289.468,39.600 289.795 C 39.600 290.324,40.060 291.025,41.402 292.545 C 41.624 292.795,42.254 293.900,42.802 295.000 C 43.351 296.100,43.935 297.060,44.100 297.133 C 44.265 297.207,44.400 297.572,44.400 297.945 C 44.400 298.318,44.760 298.883,45.200 299.200 C 45.640 299.517,46.000 300.097,46.000 300.488 C 46.000 300.880,46.162 301.200,46.360 301.200 C 46.818 301.200,48.400 303.855,48.400 304.623 C 48.400 304.940,48.678 305.200,49.019 305.200 C 49.359 305.200,49.944 305.739,50.319 306.397 C 50.693 307.056,51.135 307.596,51.300 307.597 C 51.465 307.599,51.600 307.848,51.600 308.151 C 51.600 308.454,51.864 308.921,52.187 309.189 C 52.510 309.457,52.735 309.794,52.687 309.938 C 52.639 310.082,52.960 310.578,53.400 311.040 C 54.608 312.308,55.600 313.579,55.600 313.859 C 55.600 313.996,56.005 314.503,56.500 314.986 C 58.090 316.536,58.986 317.787,58.874 318.300 C 58.814 318.575,59.133 318.800,59.582 318.800 C 60.043 318.800,60.400 319.062,60.400 319.401 C 60.400 319.732,61.120 320.653,62.000 321.448 C 62.880 322.243,63.600 323.232,63.600 323.647 C 63.600 324.094,63.884 324.404,64.300 324.409 C 64.685 324.413,65.540 325.072,66.200 325.873 C 66.860 326.673,67.805 327.725,68.300 328.210 C 68.795 328.695,69.200 329.296,69.200 329.546 C 69.200 329.796,69.436 330.000,69.725 330.000 C 70.013 330.000,70.649 330.540,71.137 331.200 C 71.625 331.860,72.268 332.400,72.565 332.400 C 72.863 332.400,73.206 332.778,73.326 333.240 C 73.447 333.702,73.712 333.978,73.915 333.853 C 74.117 333.728,74.485 334.069,74.733 334.613 C 74.980 335.156,75.375 335.600,75.609 335.600 C 76.019 335.600,78.419 337.628,80.224 339.500 C 80.701 339.995,81.296 340.400,81.546 340.400 C 81.796 340.400,82.000 340.779,82.000 341.243 C 82.000 341.818,82.186 342.014,82.585 341.861 C 82.924 341.731,83.495 342.049,83.943 342.618 C 84.368 343.158,84.940 343.600,85.214 343.600 C 85.489 343.600,86.201 344.111,86.798 344.735 C 87.394 345.359,88.178 345.983,88.541 346.122 C 88.903 346.261,89.200 346.658,89.200 347.005 C 89.200 347.352,89.425 347.588,89.700 347.530 C 90.415 347.379,92.400 348.788,92.400 349.446 C 92.400 349.751,92.777 350.000,93.238 350.000 C 93.988 350.000,95.844 351.067,97.042 352.187 C 97.285 352.414,98.519 353.230,99.785 354.000 C 101.050 354.770,102.587 355.805,103.201 356.300 C 103.814 356.795,104.504 357.200,104.735 357.200 C 104.966 357.200,105.420 357.580,105.745 358.043 C 106.070 358.507,106.510 358.779,106.723 358.648 C 106.935 358.516,107.332 358.677,107.604 359.004 C 107.876 359.332,108.346 359.600,108.649 359.600 C 108.952 359.600,109.200 359.780,109.200 360.000 C 109.200 360.220,109.487 360.400,109.838 360.400 C 110.492 360.400,112.894 361.920,113.133 362.486 C 113.207 362.658,113.569 362.800,113.939 362.800 C 114.878 362.800,119.600 365.150,119.600 365.617 C 119.600 365.828,120.050 366.000,120.600 366.000 C 121.150 366.000,121.960 366.360,122.400 366.800 C 122.840 367.240,123.552 367.600,123.981 367.600 C 124.970 367.600,126.800 368.421,126.800 368.864 C 126.800 369.049,127.160 369.200,127.600 369.200 C 128.040 369.200,128.400 369.342,128.400 369.515 C 128.400 369.688,128.743 369.856,129.162 369.887 C 129.581 369.919,130.695 370.317,131.637 370.772 C 132.579 371.228,133.676 371.600,134.075 371.600 C 134.474 371.600,134.800 371.780,134.800 372.000 C 134.800 372.220,135.160 372.400,135.600 372.400 C 136.040 372.400,136.400 372.580,136.400 372.800 C 136.400 373.020,136.940 373.200,137.600 373.200 C 138.260 373.200,138.800 373.335,138.800 373.500 C 138.800 373.665,139.290 373.828,139.888 373.863 C 140.486 373.898,141.041 374.123,141.121 374.363 C 141.201 374.603,141.612 374.800,142.033 374.800 C 142.455 374.800,142.800 374.999,142.800 375.243 C 142.800 375.486,143.063 375.585,143.384 375.462 C 143.879 375.272,146.102 375.820,148.400 376.698 C 148.730 376.824,149.540 377.002,150.200 377.094 C 150.860 377.186,151.460 377.427,151.533 377.631 C 151.607 377.834,152.271 378.000,153.010 378.000 C 153.748 378.000,154.464 378.180,154.600 378.400 C 154.736 378.620,155.647 378.800,156.624 378.800 C 157.601 378.800,158.400 378.980,158.400 379.200 C 158.400 379.420,159.199 379.600,160.176 379.600 C 161.153 379.600,162.064 379.780,162.200 380.000 C 162.336 380.220,163.247 380.400,164.224 380.400 C 165.201 380.400,166.000 380.536,166.000 380.702 C 166.000 380.869,167.032 381.061,168.293 381.130 C 169.554 381.199,170.769 381.396,170.993 381.567 C 171.217 381.738,172.480 381.919,173.800 381.969 C 175.120 382.020,176.260 382.227,176.333 382.431 C 176.407 382.634,177.881 382.800,179.610 382.800 C 181.338 382.800,182.858 382.971,182.987 383.179 C 183.288 383.667,216.015 383.685,216.602 383.198 C 216.838 383.003,218.553 382.805,220.415 382.759 C 222.277 382.713,223.980 382.539,224.200 382.372 C 224.420 382.206,225.590 382.021,226.800 381.962 C 228.010 381.903,229.091 381.724,229.201 381.564 C 229.312 381.404,230.302 381.226,231.401 381.169 C 232.501 381.112,233.580 380.932,233.800 380.769 C 234.020 380.606,235.010 380.370,236.000 380.244 C 238.004 379.990,240.683 379.425,241.600 379.064 C 241.930 378.934,242.920 378.756,243.800 378.669 C 244.680 378.581,245.701 378.381,246.069 378.224 C 246.437 378.067,247.016 377.897,247.357 377.847 C 247.698 377.797,248.102 377.631,248.255 377.478 C 248.408 377.325,249.007 377.200,249.587 377.200 C 250.166 377.200,250.811 377.050,251.020 376.867 C 251.229 376.685,252.210 376.316,253.200 376.049 C 254.190 375.782,255.360 375.412,255.800 375.227 C 256.240 375.042,257.410 374.673,258.400 374.407 C 259.390 374.140,260.513 373.760,260.895 373.561 C 261.277 373.362,261.862 373.200,262.195 373.200 C 262.528 373.200,262.800 373.040,262.800 372.845 C 262.800 372.649,263.385 372.378,264.100 372.242 C 264.815 372.107,265.924 371.722,266.565 371.388 C 267.205 371.054,268.195 370.747,268.765 370.707 C 269.334 370.667,269.928 370.446,270.085 370.217 C 270.242 369.988,270.512 369.784,270.685 369.765 C 271.215 369.707,272.494 369.163,274.934 367.955 C 276.218 367.320,277.598 366.800,278.001 366.800 C 278.404 366.800,278.793 366.659,278.867 366.486 C 278.940 366.314,280.380 365.496,282.066 364.669 C 283.752 363.841,285.349 362.902,285.615 362.582 C 285.881 362.262,286.436 362.000,286.849 362.000 C 287.262 362.000,287.600 361.820,287.600 361.600 C 287.600 361.380,287.960 361.200,288.400 361.200 C 288.840 361.200,289.200 361.020,289.200 360.800 C 289.200 360.580,289.408 360.400,289.662 360.400 C 289.916 360.400,290.681 359.976,291.362 359.458 C 292.043 358.939,293.005 358.387,293.500 358.231 C 293.995 358.074,294.400 357.800,294.400 357.622 C 294.400 357.443,294.985 357.058,295.700 356.766 C 296.415 356.475,298.291 355.373,299.869 354.318 C 301.448 353.263,302.899 352.400,303.095 352.400 C 303.290 352.400,303.968 351.860,304.600 351.200 C 305.232 350.540,305.958 350.000,306.213 350.000 C 306.468 350.000,307.002 349.640,307.400 349.200 C 307.798 348.760,308.323 348.400,308.566 348.400 C 308.809 348.400,309.232 348.040,309.507 347.600 C 309.782 347.160,310.365 346.800,310.803 346.800 C 311.242 346.800,311.600 346.558,311.600 346.263 C 311.600 345.968,312.241 345.383,313.024 344.963 C 313.808 344.543,315.563 343.167,316.924 341.904 C 318.286 340.642,319.548 339.607,319.729 339.604 C 320.190 339.598,320.996 338.730,321.310 337.900 C 321.456 337.515,321.840 337.200,322.165 337.200 C 322.489 337.200,322.990 336.873,323.277 336.474 C 323.565 336.074,324.115 335.630,324.500 335.486 C 324.885 335.343,325.200 334.949,325.200 334.613 C 325.200 334.276,325.465 334.000,325.788 334.000 C 326.111 334.000,326.775 333.460,327.263 332.800 C 327.751 332.140,328.387 331.600,328.675 331.600 C 328.964 331.600,329.200 331.388,329.200 331.128 C 329.200 330.868,330.415 329.486,331.900 328.055 C 333.385 326.625,334.540 325.262,334.467 325.027 C 334.393 324.792,334.469 324.735,334.634 324.901 C 335.003 325.270,336.400 324.066,336.400 323.380 C 336.400 323.107,337.479 321.830,338.797 320.542 C 340.116 319.254,341.196 317.987,341.197 317.727 C 341.199 317.466,342.100 316.329,343.200 315.200 C 344.300 314.071,345.200 312.979,345.200 312.773 C 345.200 312.568,345.380 312.400,345.600 312.400 C 345.820 312.400,346.000 312.222,346.000 312.003 C 346.000 311.650,347.762 309.133,349.478 307.035 C 349.822 306.614,350.479 305.624,350.937 304.835 C 351.395 304.046,352.091 303.165,352.485 302.877 C 352.878 302.590,353.200 302.095,353.200 301.777 C 353.200 301.460,353.380 301.200,353.600 301.200 C 353.820 301.200,354.000 300.965,354.000 300.678 C 354.000 300.390,354.900 298.771,356.000 297.078 C 357.100 295.386,358.000 293.822,358.000 293.604 C 358.000 293.385,358.360 292.982,358.800 292.707 C 359.240 292.432,359.600 291.986,359.600 291.716 C 359.600 291.258,359.871 290.725,362.000 287.000 C 364.133 283.268,364.400 282.740,364.400 282.263 C 364.400 281.981,364.760 281.364,365.200 280.892 C 365.640 280.420,366.000 279.690,366.000 279.271 C 366.000 278.851,366.360 278.050,366.800 277.491 C 367.240 276.931,367.600 276.232,367.599 275.937 C 367.598 275.280,369.284 271.851,369.700 271.667 C 369.865 271.593,370.000 271.096,370.000 270.561 C 370.000 270.027,370.180 269.232,370.400 268.795 C 370.620 268.358,370.980 267.642,371.200 267.205 C 371.420 266.768,371.600 266.138,371.600 265.805 C 371.600 265.472,371.791 265.200,372.024 265.200 C 372.257 265.200,372.356 265.052,372.244 264.871 C 372.132 264.691,372.302 264.040,372.620 263.426 C 372.939 262.811,373.200 261.980,373.200 261.578 C 373.200 261.176,373.349 260.755,373.532 260.642 C 373.714 260.530,374.103 259.439,374.396 258.219 C 374.688 256.998,375.079 256.000,375.264 256.000 C 375.449 256.000,375.600 255.471,375.600 254.824 C 375.600 254.177,375.760 253.548,375.956 253.427 C 376.151 253.306,376.405 252.621,376.519 251.904 C 376.632 251.187,376.934 249.880,377.189 249.000 C 377.889 246.586,378.433 244.348,378.673 242.900 C 378.791 242.185,379.003 241.600,379.144 241.600 C 379.285 241.600,379.444 240.845,379.497 239.923 C 379.550 239.000,379.775 238.065,379.997 237.843 C 380.219 237.621,380.400 236.666,380.400 235.720 C 380.400 234.774,380.550 234.000,380.734 234.000 C 380.918 234.000,381.098 233.264,381.133 232.364 C 381.168 231.464,381.323 230.525,381.476 230.277 C 381.629 230.029,381.819 228.740,381.897 227.413 C 381.976 226.086,382.211 224.829,382.420 224.620 C 382.629 224.411,382.800 222.757,382.800 220.944 C 382.800 219.131,382.961 217.548,383.157 217.426 C 383.602 217.152,383.676 186.494,383.233 186.220 C 383.057 186.112,382.880 184.721,382.840 183.130 C 382.800 181.539,382.606 179.509,382.409 178.619 C 382.212 177.728,382.001 175.830,381.939 174.400 C 381.878 172.970,381.703 171.709,381.549 171.598 C 381.395 171.487,381.225 170.407,381.171 169.198 C 381.116 167.989,380.923 166.804,380.740 166.564 C 380.558 166.325,380.336 165.425,380.246 164.564 C 380.157 163.704,379.898 162.415,379.670 161.700 C 379.442 160.985,379.355 160.400,379.477 160.400 C 379.598 160.400,379.505 160.168,379.270 159.885 C 379.035 159.601,378.797 158.600,378.741 157.659 C 378.686 156.718,378.496 155.860,378.320 155.751 C 378.144 155.642,378.000 154.933,378.000 154.176 C 378.000 153.419,377.820 152.800,377.600 152.800 C 377.380 152.800,377.200 152.523,377.200 152.184 C 377.200 151.845,376.832 150.360,376.382 148.884 C 375.932 147.408,375.371 145.480,375.136 144.600 C 374.901 143.720,374.539 142.632,374.331 142.183 C 374.123 141.733,373.901 141.103,373.837 140.783 C 373.773 140.462,373.590 139.899,373.430 139.531 C 373.269 139.163,373.089 138.623,373.030 138.331 C 372.874 137.573,372.132 135.594,371.178 133.400 C 370.892 132.740,370.629 132.110,370.594 132.000 C 370.352 131.233,369.884 130.093,369.571 129.505 C 369.367 129.123,369.200 128.448,369.200 128.005 C 369.200 127.562,368.840 126.840,368.400 126.400 C 367.960 125.960,367.600 125.240,367.600 124.800 C 367.600 124.360,367.420 124.000,367.200 124.000 C 366.980 124.000,366.800 123.550,366.800 123.000 C 366.800 122.450,366.620 122.000,366.400 122.000 C 366.180 122.000,366.000 121.640,366.000 121.200 C 366.000 120.760,365.864 120.400,365.698 120.400 C 365.349 120.400,364.177 117.949,364.311 117.500 C 364.360 117.335,364.220 117.200,364.000 117.200 C 363.780 117.200,363.600 116.855,363.600 116.433 C 363.600 116.012,363.425 115.607,363.212 115.533 C 362.998 115.460,362.765 115.013,362.693 114.539 C 362.621 114.065,362.348 113.419,362.085 113.102 C 361.822 112.786,361.730 112.404,361.879 112.254 C 362.029 112.104,361.758 111.706,361.276 111.368 C 360.794 111.031,360.400 110.557,360.400 110.315 C 360.400 110.073,359.941 109.274,359.380 108.538 C 358.818 107.802,358.503 107.197,358.680 107.194 C 358.856 107.191,358.820 107.056,358.599 106.894 C 358.379 106.732,357.945 106.108,357.635 105.507 C 357.326 104.905,356.776 104.095,356.414 103.707 C 356.052 103.318,355.497 102.415,355.180 101.700 C 354.864 100.985,354.469 100.400,354.302 100.400 C 354.136 100.400,354.000 100.083,354.000 99.696 C 354.000 99.309,353.640 98.768,353.200 98.493 C 352.760 98.218,352.399 97.770,352.398 97.497 C 352.397 97.223,351.857 96.425,351.198 95.722 C 350.539 95.019,350.000 94.164,350.000 93.822 C 350.000 93.480,349.816 93.200,349.591 93.200 C 349.367 93.200,348.964 92.705,348.698 92.100 C 348.431 91.495,347.895 90.765,347.506 90.477 C 347.118 90.190,346.795 89.740,346.789 89.477 C 346.782 89.215,346.017 88.173,345.089 87.161 C 342.106 83.914,341.200 82.815,341.200 82.446 C 341.200 82.248,340.933 81.983,340.607 81.858 C 340.269 81.728,340.115 81.365,340.250 81.015 C 340.409 80.601,340.243 80.394,339.743 80.381 C 339.321 80.371,338.395 79.509,337.600 78.386 C 336.830 77.298,335.996 76.407,335.746 76.404 C 335.496 76.402,334.968 75.905,334.572 75.300 C 334.176 74.695,332.835 73.192,331.592 71.961 C 330.349 70.729,329.214 69.413,329.069 69.035 C 328.924 68.658,328.651 68.445,328.461 68.562 C 328.272 68.679,327.904 68.307,327.644 67.736 C 327.383 67.164,327.062 66.804,326.931 66.936 C 326.799 67.068,325.532 66.056,324.116 64.688 C 322.699 63.319,321.284 62.056,320.970 61.880 C 320.657 61.704,320.400 61.335,320.400 61.060 C 320.400 60.786,319.780 60.336,319.021 60.062 C 318.263 59.788,317.537 59.257,317.408 58.882 C 317.279 58.507,315.902 57.300,314.348 56.200 C 312.794 55.100,311.194 53.921,310.793 53.580 C 310.391 53.239,308.968 52.163,307.631 51.190 C 306.294 50.216,305.200 49.179,305.200 48.885 C 305.200 48.590,304.883 48.403,304.496 48.469 C 304.110 48.534,303.136 48.064,302.333 47.423 C 301.529 46.782,300.566 46.213,300.193 46.158 C 299.819 46.103,299.128 45.728,298.657 45.324 C 298.186 44.920,297.170 44.246,296.400 43.826 C 295.630 43.406,294.856 42.823,294.680 42.531 C 294.504 42.239,294.099 42.000,293.780 42.000 C 293.461 42.000,293.200 41.812,293.200 41.582 C 293.200 41.353,292.963 41.218,292.673 41.282 C 292.101 41.410,289.207 39.590,289.203 39.100 C 289.201 38.935,288.840 38.800,288.400 38.800 C 287.960 38.800,287.600 38.620,287.600 38.400 C 287.600 38.180,287.251 38.000,286.824 38.000 C 286.397 38.000,285.936 37.820,285.800 37.600 C 285.664 37.380,285.203 37.200,284.776 37.200 C 284.349 37.200,284.000 37.034,284.000 36.831 C 284.000 36.628,283.382 36.258,282.626 36.009 C 281.870 35.759,281.195 35.430,281.126 35.278 C 280.945 34.879,278.084 33.600,277.374 33.600 C 277.044 33.600,276.671 33.330,276.545 33.000 C 276.418 32.670,276.007 32.400,275.632 32.400 C 275.257 32.400,274.205 32.040,273.294 31.600 C 272.384 31.160,271.400 30.800,271.108 30.800 C 270.817 30.800,270.133 30.488,269.589 30.107 C 269.045 29.726,268.154 29.354,267.610 29.281 C 267.065 29.208,266.435 29.005,266.210 28.829 C 265.984 28.654,265.260 28.382,264.600 28.224 C 263.254 27.903,260.706 26.782,260.400 26.376 C 260.290 26.230,259.615 25.996,258.900 25.855 C 255.610 25.209,255.200 25.087,255.200 24.755 C 255.200 24.560,254.814 24.400,254.343 24.400 C 253.574 24.400,248.716 23.120,247.200 22.518 C 246.870 22.387,246.240 22.217,245.800 22.141 C 242.585 21.584,237.530 20.362,237.000 20.012 C 236.780 19.868,235.645 19.716,234.477 19.676 C 233.310 19.637,232.050 19.454,231.677 19.271 C 231.305 19.088,230.190 18.890,229.200 18.831 C 228.210 18.772,227.310 18.597,227.200 18.441 C 227.090 18.285,225.942 18.118,224.648 18.071 C 223.355 18.023,222.095 17.852,221.848 17.692 C 221.602 17.531,220.590 17.387,219.600 17.371 C 215.514 17.306,211.375 17.051,211.000 16.842 C 210.403 16.510,190.945 16.533,188.400 16.870 M216.044 29.427 C 216.280 29.573,217.671 29.780,219.136 29.888 C 220.601 29.996,221.890 30.207,222.000 30.359 C 222.110 30.510,223.458 30.685,224.995 30.747 C 226.532 30.809,227.882 30.982,227.995 31.130 C 228.108 31.279,229.100 31.464,230.200 31.542 C 231.300 31.620,232.367 31.785,232.571 31.909 C 232.775 32.033,233.665 32.189,234.549 32.255 C 235.433 32.320,236.436 32.498,236.778 32.649 C 237.120 32.800,237.846 32.997,238.390 33.087 C 238.935 33.178,239.565 33.384,239.790 33.547 C 240.016 33.709,240.799 33.892,241.531 33.954 C 242.263 34.016,243.523 34.357,244.331 34.712 C 245.139 35.067,246.340 35.411,247.000 35.477 C 247.660 35.543,248.650 35.761,249.200 35.961 C 250.427 36.408,251.511 36.759,251.904 36.837 C 252.067 36.869,252.650 37.070,253.200 37.283 C 253.750 37.497,254.470 37.734,254.800 37.812 C 255.130 37.889,256.030 38.171,256.800 38.437 C 259.224 39.276,259.394 39.330,259.680 39.365 C 259.834 39.384,260.185 39.625,260.460 39.900 C 260.735 40.175,261.221 40.400,261.539 40.400 C 262.247 40.400,266.922 42.057,267.200 42.407 C 267.382 42.635,268.714 43.276,269.200 43.369 C 269.410 43.409,277.363 47.381,278.400 47.963 C 278.730 48.149,279.810 48.715,280.800 49.221 C 286.372 52.072,289.162 53.673,290.142 54.581 C 290.746 55.141,291.457 55.607,291.721 55.616 C 291.984 55.625,292.823 56.165,293.585 56.816 C 294.347 57.467,295.103 58.000,295.265 58.000 C 295.427 58.000,296.397 58.585,297.421 59.300 C 298.444 60.015,299.566 60.780,299.913 61.000 C 300.727 61.516,302.703 63.153,303.899 64.300 C 304.414 64.795,304.931 65.200,305.046 65.200 C 305.354 65.200,308.411 67.382,309.800 68.594 C 315.933 73.942,323.600 81.453,323.600 82.113 C 323.600 82.387,324.095 82.968,324.700 83.405 C 326.912 85.004,330.800 89.383,330.800 90.275 C 330.800 90.663,331.027 90.799,331.421 90.647 C 331.765 90.515,331.936 90.579,331.805 90.792 C 331.675 91.002,332.296 91.831,333.184 92.634 C 334.073 93.436,334.800 94.307,334.800 94.569 C 334.800 94.831,335.606 95.911,336.592 96.970 C 338.441 98.955,340.400 102.083,340.400 103.050 C 340.400 103.353,340.649 103.600,340.954 103.600 C 341.423 103.600,342.936 105.375,342.999 106.000 C 343.011 106.110,343.735 107.263,344.610 108.563 C 347.143 112.326,348.199 114.101,348.796 115.600 C 349.103 116.370,349.455 117.090,349.577 117.200 C 350.049 117.624,350.800 119.217,350.800 119.795 C 350.800 120.128,350.938 120.400,351.106 120.400 C 351.416 120.400,353.382 123.378,353.422 123.909 C 353.434 124.069,354.289 125.924,355.322 128.031 C 356.355 130.138,357.200 132.231,357.200 132.682 C 357.200 133.133,357.464 133.721,357.787 133.989 C 358.110 134.257,358.347 134.594,358.313 134.738 C 358.279 134.882,358.555 135.697,358.926 136.549 C 359.297 137.401,359.600 138.436,359.600 138.849 C 359.600 139.262,359.780 139.600,360.000 139.600 C 360.220 139.600,360.400 140.028,360.400 140.551 C 360.400 141.074,360.668 141.724,360.996 141.996 C 361.323 142.268,361.488 142.658,361.361 142.863 C 361.235 143.068,361.337 143.484,361.590 143.788 C 361.842 144.091,362.095 144.759,362.151 145.270 C 362.208 145.782,362.470 146.598,362.733 147.084 C 362.996 147.570,363.171 148.110,363.123 148.284 C 363.075 148.458,363.343 149.176,363.718 149.880 C 364.093 150.584,364.400 151.709,364.400 152.380 C 364.400 153.051,364.546 153.600,364.724 153.600 C 365.032 153.600,365.774 156.122,366.165 158.493 C 366.264 159.095,366.439 159.740,366.555 159.928 C 366.671 160.115,366.811 160.941,366.867 161.762 C 366.922 162.584,367.110 163.344,367.284 163.452 C 367.458 163.559,367.600 164.231,367.600 164.944 C 367.600 165.657,367.765 166.411,367.968 166.620 C 368.170 166.829,368.433 167.900,368.553 169.000 C 368.672 170.100,368.874 171.990,369.002 173.200 C 369.129 174.410,369.405 176.030,369.615 176.800 C 369.825 177.570,370.076 179.460,370.173 181.000 C 370.270 182.540,370.451 184.160,370.575 184.600 C 370.699 185.040,370.851 187.560,370.914 190.200 C 370.977 192.840,371.129 195.180,371.251 195.400 C 371.710 196.223,371.666 204.000,371.203 204.000 C 370.943 204.000,370.885 204.211,371.065 204.500 C 371.517 205.223,371.583 206.000,371.193 206.000 C 371.007 206.000,371.007 206.526,371.191 207.170 C 371.376 207.813,371.423 208.444,371.296 208.571 C 371.169 208.698,370.995 210.640,370.909 212.888 C 370.823 215.136,370.576 217.188,370.360 217.448 C 370.094 217.768,370.134 218.000,370.483 218.161 C 370.892 218.350,370.895 218.449,370.500 218.633 C 370.187 218.779,370.000 219.706,370.000 221.109 C 370.000 223.166,369.396 227.350,368.889 228.800 C 368.774 229.130,368.599 230.390,368.501 231.600 C 368.403 232.810,368.205 233.890,368.061 234.000 C 367.917 234.110,367.753 234.904,367.695 235.765 C 367.637 236.626,367.444 237.526,367.266 237.765 C 367.088 238.004,366.904 238.827,366.857 239.593 C 366.811 240.360,366.599 241.161,366.387 241.373 C 366.174 241.586,366.000 242.144,366.000 242.613 C 366.000 243.083,365.881 243.586,365.735 243.732 C 365.589 243.878,365.406 244.576,365.329 245.284 C 365.251 245.993,365.011 246.749,364.794 246.966 C 364.577 247.183,364.400 247.753,364.400 248.234 C 364.400 248.715,363.861 250.614,363.202 252.454 C 362.543 254.294,362.003 256.115,362.002 256.500 C 362.001 256.885,361.820 257.200,361.600 257.200 C 361.380 257.200,361.200 257.740,361.200 258.400 C 361.200 259.060,361.020 259.600,360.800 259.600 C 360.580 259.600,360.400 260.039,360.400 260.576 C 360.400 261.113,360.217 261.666,359.993 261.804 C 359.770 261.942,359.679 262.204,359.791 262.386 C 359.904 262.567,359.715 262.824,359.372 262.955 C 359.030 263.087,358.858 263.370,358.990 263.584 C 359.312 264.104,356.448 270.787,355.900 270.795 C 355.735 270.798,355.600 271.239,355.600 271.776 C 355.600 272.313,355.420 272.864,355.200 273.000 C 354.980 273.136,354.800 273.514,354.800 273.840 C 354.800 274.167,354.446 274.813,354.014 275.277 C 353.581 275.741,353.309 276.253,353.408 276.413 C 353.507 276.574,353.141 277.364,352.594 278.170 C 352.047 278.976,351.600 279.831,351.600 280.070 C 351.600 280.636,347.784 287.389,346.441 289.200 C 345.870 289.970,345.402 290.728,345.401 290.884 C 345.401 291.040,345.171 291.490,344.890 291.884 C 344.274 292.750,342.760 295.069,342.177 296.040 C 340.991 298.014,336.812 303.351,336.163 303.720 C 335.853 303.896,335.600 304.261,335.600 304.532 C 335.600 304.802,335.240 305.283,334.800 305.600 C 334.360 305.917,334.000 306.433,334.000 306.747 C 334.000 307.060,333.174 308.236,332.165 309.359 C 331.155 310.481,329.220 312.643,327.865 314.161 C 322.436 320.244,314.653 327.757,312.783 328.722 C 312.226 329.009,311.597 329.624,311.385 330.089 C 311.173 330.554,310.640 331.129,310.200 331.367 C 309.760 331.605,308.934 332.295,308.364 332.900 C 307.795 333.505,307.160 334.000,306.954 334.000 C 306.747 334.000,305.863 334.714,304.989 335.587 C 304.115 336.460,303.209 337.180,302.975 337.187 C 302.742 337.194,302.202 337.515,301.775 337.900 C 300.603 338.958,296.467 342.000,296.200 342.000 C 296.072 342.000,295.580 342.360,295.108 342.800 C 294.636 343.240,294.013 343.600,293.725 343.600 C 293.436 343.600,293.200 343.780,293.200 344.000 C 293.200 344.220,293.018 344.400,292.797 344.400 C 292.575 344.400,291.648 344.940,290.737 345.600 C 289.825 346.260,288.882 346.805,288.640 346.811 C 288.398 346.817,287.493 347.357,286.629 348.011 C 285.765 348.665,284.820 349.200,284.529 349.200 C 284.238 349.200,284.000 349.349,284.000 349.532 C 284.000 349.714,283.055 350.298,281.900 350.830 C 280.745 351.362,279.562 352.023,279.272 352.298 C 278.982 352.573,278.262 352.913,277.672 353.053 C 277.082 353.193,276.266 353.598,275.858 353.954 C 275.450 354.309,275.000 354.568,274.858 354.529 C 274.716 354.489,274.060 354.696,273.400 354.988 C 272.740 355.280,271.615 355.761,270.900 356.057 C 270.185 356.353,269.600 356.731,269.600 356.898 C 269.600 357.064,269.150 357.200,268.600 357.200 C 268.050 357.200,267.600 357.380,267.600 357.600 C 267.600 357.820,267.274 358.000,266.875 358.000 C 266.476 358.000,265.351 358.388,264.375 358.863 C 263.399 359.337,262.375 359.727,262.100 359.729 C 261.825 359.732,261.600 359.883,261.600 360.067 C 261.600 360.250,261.165 360.400,260.633 360.400 C 260.102 360.400,259.601 360.597,259.521 360.837 C 259.441 361.078,258.706 361.293,257.888 361.316 C 257.069 361.340,256.400 361.459,256.400 361.582 C 256.400 361.704,255.815 362.044,255.100 362.336 C 254.385 362.628,253.431 363.043,252.979 363.259 C 252.528 363.474,251.628 363.691,250.978 363.740 C 250.329 363.790,249.618 363.927,249.399 364.044 C 249.180 364.162,248.190 364.491,247.200 364.775 C 246.210 365.059,245.040 365.450,244.600 365.644 C 244.160 365.838,243.201 366.037,242.470 366.086 C 241.738 366.135,241.052 366.315,240.946 366.487 C 240.840 366.659,240.169 366.800,239.456 366.800 C 238.743 366.800,237.989 366.955,237.780 367.144 C 237.308 367.570,233.104 368.400,231.413 368.400 C 230.724 368.400,229.988 368.572,229.777 368.783 C 229.566 368.994,228.630 369.219,227.697 369.283 C 226.764 369.347,226.001 369.571,226.001 369.780 C 226.000 369.989,225.788 369.948,225.530 369.690 C 225.238 369.398,224.891 369.358,224.618 369.585 C 224.376 369.786,223.008 370.016,221.579 370.096 C 220.151 370.175,218.783 370.363,218.541 370.513 C 218.299 370.662,216.005 370.811,213.443 370.843 C 210.880 370.876,208.682 371.068,208.556 371.271 C 208.423 371.486,208.109 371.457,207.800 371.200 C 207.416 370.882,207.197 370.882,207.000 371.200 C 206.803 371.518,206.584 371.518,206.200 371.200 C 205.816 370.882,205.597 370.882,205.400 371.200 C 205.203 371.518,204.984 371.518,204.600 371.200 C 204.234 370.896,203.991 370.890,203.812 371.181 C 203.503 371.680,196.145 371.759,195.841 371.266 C 195.603 370.881,194.542 370.944,193.447 371.408 C 193.033 371.583,192.403 371.555,192.047 371.346 C 191.691 371.136,189.154 370.917,186.408 370.858 C 183.663 370.799,181.323 370.627,181.208 370.475 C 181.094 370.324,179.650 370.140,178.000 370.067 C 176.350 369.994,174.940 369.768,174.866 369.564 C 174.792 369.361,174.590 369.282,174.418 369.389 C 174.000 369.647,166.256 368.354,166.000 367.983 C 165.890 367.823,165.007 367.683,164.039 367.671 C 163.070 367.658,162.170 367.502,162.039 367.323 C 161.907 367.144,161.260 366.934,160.600 366.858 C 159.940 366.781,159.097 366.557,158.726 366.359 C 158.356 366.162,157.681 366.000,157.226 366.000 C 156.772 366.000,156.400 365.838,156.400 365.640 C 156.400 365.442,155.802 365.280,155.071 365.280 C 154.340 365.280,152.855 364.975,151.771 364.603 C 150.687 364.230,149.354 363.841,148.809 363.738 C 148.263 363.635,147.681 363.337,147.515 363.076 C 147.348 362.814,147.209 362.716,147.206 362.858 C 147.195 363.317,141.175 361.269,138.705 359.966 C 138.323 359.765,137.744 359.600,137.418 359.600 C 137.091 359.600,136.183 359.240,135.400 358.800 C 134.617 358.360,133.621 358.000,133.188 358.000 C 132.755 358.000,132.400 357.820,132.400 357.600 C 132.400 357.380,132.128 357.200,131.795 357.200 C 131.462 357.200,130.832 357.020,130.395 356.800 C 129.958 356.580,129.242 356.220,128.805 356.000 C 128.368 355.780,127.738 355.600,127.405 355.600 C 127.072 355.600,126.799 355.465,126.797 355.300 C 126.793 354.941,124.856 354.000,124.120 354.000 C 123.834 354.000,123.600 353.820,123.600 353.600 C 123.600 353.380,123.366 353.200,123.080 353.200 C 122.344 353.200,120.407 352.259,120.403 351.900 C 120.401 351.735,120.170 351.600,119.889 351.600 C 119.608 351.600,118.934 351.289,118.392 350.909 C 117.849 350.529,117.183 350.186,116.911 350.146 C 116.639 350.106,116.127 349.784,115.774 349.431 C 115.421 349.078,114.348 348.432,113.390 347.996 C 112.432 347.559,111.540 347.026,111.407 346.812 C 111.275 346.597,110.544 346.126,109.783 345.765 C 109.022 345.404,108.400 344.949,108.400 344.754 C 108.400 344.559,108.042 344.400,107.603 344.400 C 107.165 344.400,106.582 344.040,106.307 343.600 C 106.032 343.160,105.557 342.800,105.251 342.800 C 104.944 342.800,104.403 342.475,104.047 342.078 C 103.691 341.681,102.852 341.134,102.183 340.864 C 101.513 340.593,100.249 339.703,99.374 338.886 C 98.498 338.069,97.291 337.145,96.691 336.832 C 96.091 336.520,95.600 336.115,95.600 335.932 C 95.600 335.750,95.349 335.600,95.041 335.600 C 94.734 335.600,93.896 334.931,93.178 334.114 C 92.461 333.297,91.643 332.595,91.362 332.553 C 90.623 332.445,87.600 329.564,87.600 328.969 C 87.600 328.693,87.060 328.228,86.400 327.936 C 85.740 327.644,85.200 327.269,85.200 327.102 C 85.200 326.936,85.058 326.800,84.885 326.800 C 84.492 326.800,76.155 318.598,74.800 316.877 C 74.250 316.179,73.604 315.606,73.364 315.604 C 73.125 315.602,72.723 315.150,72.473 314.600 C 72.222 314.050,71.857 313.600,71.662 313.600 C 71.466 313.600,70.842 312.925,70.275 312.100 C 69.708 311.275,68.339 309.610,67.231 308.400 C 66.124 307.190,65.214 305.969,65.209 305.687 C 65.204 305.406,64.941 305.076,64.625 304.954 C 64.309 304.833,64.148 304.479,64.268 304.167 C 64.388 303.853,64.249 303.600,63.956 303.600 C 63.273 303.600,61.549 301.605,61.834 301.145 C 61.953 300.952,61.762 300.683,61.408 300.548 C 61.055 300.412,60.418 299.620,59.994 298.788 C 59.569 297.955,59.082 297.212,58.911 297.137 C 58.564 296.984,55.600 292.545,55.600 292.178 C 55.600 292.049,55.060 291.159,54.400 290.200 C 53.740 289.241,53.200 288.263,53.200 288.028 C 53.200 287.793,53.064 287.600,52.898 287.600 C 52.731 287.600,52.343 287.015,52.035 286.300 C 51.727 285.585,51.140 284.519,50.732 283.932 C 50.017 282.902,48.747 280.615,46.340 276.027 C 45.713 274.832,45.200 273.549,45.200 273.176 C 45.200 272.803,44.949 272.289,44.641 272.034 C 44.334 271.779,44.175 271.217,44.288 270.785 C 44.432 270.236,44.292 270.000,43.823 270.000 C 43.454 270.000,43.265 269.819,43.402 269.597 C 43.539 269.376,43.268 268.657,42.801 268.001 C 42.333 267.345,41.924 266.446,41.890 266.004 C 41.857 265.562,41.688 265.200,41.515 265.200 C 41.342 265.200,41.200 264.845,41.200 264.412 C 41.200 263.979,40.855 263.010,40.433 262.259 C 40.011 261.508,39.606 260.467,39.533 259.947 C 39.460 259.426,39.293 258.910,39.163 258.800 C 38.808 258.501,37.200 253.549,37.200 252.756 C 37.200 252.377,37.029 252.007,36.819 251.933 C 36.610 251.860,36.364 251.170,36.273 250.400 C 36.097 248.915,35.776 247.839,35.171 246.705 C 34.967 246.323,34.800 245.303,34.800 244.439 C 34.800 243.574,34.603 242.801,34.363 242.721 C 34.122 242.641,33.907 241.906,33.884 241.088 C 33.860 240.269,33.697 239.600,33.521 239.600 C 33.344 239.600,33.200 239.096,33.200 238.480 C 33.200 237.864,33.034 237.189,32.832 236.980 C 32.629 236.771,32.418 235.790,32.361 234.800 C 32.305 233.810,32.121 232.813,31.951 232.585 C 31.782 232.357,31.589 231.322,31.522 230.286 C 31.455 229.249,31.265 228.400,31.100 228.400 C 30.935 228.400,30.800 227.437,30.800 226.260 C 30.800 225.083,30.622 223.598,30.403 222.960 C 30.185 222.322,29.950 220.533,29.880 218.985 C 29.810 217.437,29.608 215.936,29.430 215.649 C 28.874 214.749,28.957 182.883,29.517 182.323 C 29.800 182.040,30.000 180.710,30.000 179.120 C 30.000 177.573,30.173 176.400,30.400 176.400 C 30.628 176.400,30.800 175.222,30.800 173.667 C 30.800 172.163,30.927 170.807,31.082 170.652 C 31.237 170.497,31.421 169.882,31.492 169.285 C 31.707 167.463,32.474 163.824,32.733 163.400 C 32.867 163.180,32.997 162.621,33.023 162.157 C 33.049 161.694,33.219 160.974,33.401 160.557 C 33.582 160.141,33.757 159.530,33.789 159.200 C 33.969 157.342,34.538 154.896,34.953 154.200 C 35.215 153.760,35.484 152.770,35.551 152.000 C 35.618 151.230,36.001 149.790,36.401 148.800 C 36.802 147.810,37.364 146.145,37.652 145.100 C 37.939 144.055,38.277 143.200,38.402 143.200 C 38.527 143.200,38.660 142.798,38.697 142.306 C 38.734 141.814,38.952 141.349,39.182 141.273 C 39.412 141.196,39.600 140.728,39.600 140.233 C 39.600 139.738,39.725 139.209,39.877 139.056 C 40.029 138.904,40.215 138.379,40.289 137.890 C 40.363 137.400,40.598 136.940,40.812 136.867 C 41.025 136.793,41.200 136.386,41.200 135.961 C 41.200 135.271,41.869 133.731,42.400 133.200 C 42.510 133.090,42.648 132.730,42.707 132.400 C 42.874 131.465,44.565 127.816,44.900 127.667 C 45.065 127.593,45.200 127.188,45.200 126.767 C 45.200 126.345,45.380 126.000,45.600 126.000 C 45.820 126.000,46.000 125.640,46.000 125.200 C 46.000 124.760,46.180 124.400,46.400 124.400 C 46.620 124.400,46.800 124.175,46.799 123.900 C 46.797 123.270,48.497 119.846,48.900 119.667 C 49.065 119.593,49.200 119.203,49.200 118.800 C 49.200 118.397,49.335 118.007,49.500 117.933 C 49.665 117.860,50.112 117.125,50.494 116.300 C 50.875 115.475,51.460 114.800,51.794 114.800 C 52.148 114.800,52.400 114.441,52.400 113.935 C 52.400 113.008,55.652 107.187,56.618 106.385 C 56.938 106.119,57.200 105.699,57.201 105.451 C 57.201 105.203,57.921 104.190,58.800 103.200 C 59.679 102.210,60.399 101.177,60.399 100.905 C 60.400 100.632,60.715 100.032,61.100 99.571 C 61.485 99.110,62.123 98.351,62.518 97.884 C 62.913 97.418,63.597 96.452,64.038 95.738 C 64.543 94.921,65.055 94.523,65.420 94.663 C 65.782 94.802,66.000 94.638,66.000 94.229 C 66.000 93.294,67.189 91.600,67.846 91.600 C 68.151 91.600,68.400 91.330,68.400 91.000 C 68.400 90.670,68.715 90.079,69.100 89.687 C 69.485 89.295,70.304 88.305,70.920 87.487 C 71.537 86.669,72.302 86.000,72.620 86.000 C 72.939 86.000,73.200 85.694,73.200 85.320 C 73.200 84.677,82.357 75.409,85.965 72.400 C 86.889 71.630,88.329 70.329,89.165 69.510 C 90.002 68.690,90.773 68.107,90.880 68.213 C 90.987 68.320,91.600 67.911,92.244 67.304 C 92.887 66.697,93.891 65.953,94.473 65.650 C 95.056 65.348,95.609 64.808,95.703 64.450 C 95.797 64.093,96.397 63.533,97.037 63.206 C 97.677 62.879,98.606 62.194,99.102 61.683 C 99.598 61.173,100.162 60.853,100.357 60.973 C 100.551 61.093,101.473 60.473,102.404 59.596 C 103.336 58.718,104.257 58.000,104.449 58.000 C 104.642 58.000,105.147 57.685,105.571 57.300 C 106.870 56.122,107.555 55.600,107.805 55.600 C 107.936 55.600,109.104 54.880,110.400 54.000 C 111.696 53.120,113.014 52.400,113.329 52.400 C 113.644 52.400,114.119 52.139,114.384 51.819 C 114.882 51.219,115.236 51.028,123.600 46.842 C 126.350 45.466,128.913 44.173,129.295 43.970 C 129.677 43.766,130.240 43.600,130.546 43.600 C 130.852 43.600,131.324 43.332,131.596 43.004 C 131.868 42.677,132.250 42.507,132.445 42.628 C 132.640 42.749,132.800 42.657,132.800 42.424 C 132.800 42.191,133.079 42.000,133.419 42.000 C 133.760 42.000,134.784 41.640,135.694 41.200 C 136.605 40.760,137.856 40.400,138.475 40.400 C 139.094 40.400,139.601 40.265,139.603 40.100 C 139.607 39.699,141.581 38.800,142.456 38.800 C 142.839 38.800,143.264 38.620,143.400 38.400 C 143.536 38.180,143.976 38.000,144.378 38.000 C 144.780 38.000,145.611 37.739,146.226 37.420 C 146.840 37.102,147.498 36.937,147.689 37.055 C 147.879 37.173,148.252 37.106,148.518 36.906 C 148.783 36.707,149.810 36.321,150.800 36.047 C 151.790 35.774,153.140 35.363,153.800 35.133 C 154.460 34.903,155.352 34.725,155.782 34.739 C 156.211 34.752,156.763 34.596,157.008 34.393 C 157.253 34.190,158.071 33.982,158.827 33.931 C 159.582 33.880,160.293 33.706,160.407 33.545 C 160.522 33.384,161.062 33.178,161.607 33.088 C 162.153 32.997,162.870 32.814,163.200 32.680 C 163.530 32.547,164.374 32.357,165.075 32.258 C 165.777 32.159,166.521 31.972,166.729 31.844 C 166.937 31.715,167.983 31.583,169.054 31.549 C 170.124 31.516,171.292 31.340,171.648 31.158 C 172.005 30.976,173.400 30.794,174.748 30.754 C 176.097 30.713,177.200 30.548,177.200 30.387 C 177.200 30.064,180.365 29.724,186.800 29.355 C 189.110 29.222,191.045 29.073,191.100 29.024 C 191.349 28.799,215.664 29.192,216.044 29.427 M121.409 55.324 C 119.807 56.289,119.626 56.893,119.613 61.300 C 119.604 64.205,119.454 65.600,119.151 65.600 C 118.828 65.600,118.834 65.759,119.170 66.164 C 119.428 66.475,119.495 66.818,119.319 66.926 C 119.144 67.035,118.944 69.966,118.875 73.440 C 118.807 76.914,118.640 79.935,118.505 80.154 C 118.370 80.372,118.187 83.891,118.098 87.973 C 118.009 92.055,117.762 95.605,117.549 95.862 C 117.295 96.167,117.313 96.422,117.600 96.600 C 117.853 96.757,117.896 97.067,117.701 97.336 C 117.516 97.591,117.309 100.590,117.242 104.000 C 117.171 107.587,116.950 110.305,116.717 110.450 C 116.458 110.611,116.479 110.802,116.777 110.986 C 117.048 111.153,117.098 111.463,116.899 111.736 C 116.712 111.991,116.510 114.984,116.449 118.387 C 116.389 121.790,116.226 124.758,116.088 124.982 C 115.949 125.206,115.769 128.540,115.687 132.390 C 115.605 136.240,115.417 139.483,115.269 139.595 C 114.911 139.868,114.945 140.879,115.334 141.500 C 115.506 141.775,115.502 142.000,115.324 142.000 C 115.054 142.000,114.942 144.139,115.177 144.800 C 115.216 144.910,115.335 145.900,115.441 147.000 C 115.837 151.092,115.805 150.970,117.414 154.600 C 117.804 155.480,118.093 156.345,118.055 156.521 C 118.017 156.698,118.275 157.132,118.628 157.485 C 118.982 157.839,119.726 158.864,120.284 159.764 C 120.841 160.664,121.742 161.878,122.287 162.463 C 122.832 163.047,123.305 163.677,123.339 163.863 C 123.373 164.048,123.985 164.714,124.700 165.341 C 125.415 165.969,126.000 166.734,126.000 167.041 C 126.000 167.349,126.213 167.600,126.474 167.600 C 127.899 167.600,136.400 177.725,136.400 179.423 C 136.400 179.759,136.760 180.420,137.200 180.892 C 137.640 181.364,138.000 182.131,138.000 182.595 C 138.000 183.060,138.165 183.611,138.366 183.820 C 138.568 184.029,138.789 184.830,138.858 185.600 C 138.926 186.370,139.114 187.096,139.275 187.213 C 139.435 187.331,139.616 188.861,139.676 190.613 C 139.735 192.366,139.956 193.921,140.166 194.070 C 140.408 194.240,140.402 194.535,140.150 194.870 C 139.807 195.326,139.719 196.175,139.981 196.500 C 140.243 196.825,140.280 198.000,140.028 198.000 C 139.862 198.000,139.851 198.816,140.002 199.814 C 140.154 200.812,140.170 201.695,140.039 201.776 C 139.694 201.989,139.790 205.337,140.158 205.932 C 140.329 206.209,140.265 206.681,140.015 206.982 C 139.688 207.376,139.683 207.604,140.000 207.800 C 140.259 207.960,140.297 208.261,140.093 208.536 C 139.902 208.791,139.700 213.944,139.643 219.987 C 139.586 226.030,139.429 231.153,139.294 231.371 C 139.159 231.590,138.987 235.286,138.912 239.584 C 138.829 244.375,138.619 247.454,138.371 247.539 C 138.110 247.629,138.126 247.870,138.418 248.221 C 138.667 248.521,138.726 248.997,138.550 249.282 C 138.220 249.815,138.173 250.650,137.979 259.300 C 137.916 262.105,137.760 264.400,137.632 264.400 C 137.390 264.401,137.357 265.027,137.173 273.100 C 137.111 275.795,136.947 278.000,136.808 278.000 C 136.669 278.000,136.519 280.655,136.474 283.900 C 136.430 287.145,136.221 291.870,136.010 294.400 C 135.799 296.930,135.434 302.060,135.199 305.800 C 134.965 309.540,134.697 313.410,134.606 314.400 C 134.514 315.390,134.326 318.900,134.188 322.200 C 134.050 325.500,133.834 328.470,133.707 328.800 C 133.350 329.733,133.331 336.834,133.685 337.052 C 133.858 337.160,134.000 337.653,134.000 338.148 C 134.000 338.686,134.484 339.408,135.200 339.937 C 135.860 340.425,136.400 341.089,136.400 341.412 C 136.400 341.735,136.665 342.000,136.988 342.000 C 137.311 342.000,138.186 342.343,138.933 342.762 C 141.186 344.028,141.736 344.282,143.301 344.777 C 144.950 345.299,150.591 345.273,151.700 344.738 C 152.085 344.552,152.758 344.220,153.195 344.000 C 153.632 343.780,154.332 343.600,154.752 343.600 C 155.171 343.600,155.617 343.333,155.742 343.007 C 155.867 342.680,156.230 342.513,156.549 342.636 C 156.905 342.772,157.229 342.539,157.391 342.029 C 157.536 341.573,157.801 341.200,157.981 341.200 C 158.161 341.200,158.970 340.525,159.778 339.700 L 161.247 338.200 161.144 334.400 C 161.088 332.310,160.875 330.375,160.672 330.100 C 160.438 329.784,160.473 329.394,160.768 329.039 C 161.029 328.724,161.070 328.417,160.861 328.339 C 160.656 328.263,160.385 325.590,160.259 322.400 C 160.056 317.227,159.678 310.807,159.002 301.000 C 158.880 299.240,158.720 295.888,158.646 293.552 C 158.572 291.215,158.406 289.134,158.278 288.927 C 158.150 288.720,158.004 285.637,157.953 282.075 C 157.903 278.514,157.745 275.600,157.603 275.600 C 157.461 275.600,157.292 273.485,157.227 270.900 C 157.024 262.825,156.989 262.212,156.702 261.756 C 156.548 261.511,156.550 261.184,156.706 261.028 C 157.070 260.664,157.083 259.463,156.727 259.193 C 156.576 259.079,156.369 255.839,156.266 251.993 C 156.163 248.147,156.043 245.000,156.000 245.000 C 155.786 245.000,155.657 241.889,155.572 234.700 C 155.521 230.355,155.345 226.800,155.180 226.800 C 155.015 226.800,154.892 226.125,154.906 225.300 C 154.921 224.475,154.894 215.999,154.848 206.463 C 154.801 196.928,154.919 188.918,155.111 188.663 C 155.302 188.409,155.496 187.577,155.542 186.816 C 155.588 186.054,155.823 185.309,156.064 185.160 C 156.305 185.011,156.399 184.721,156.272 184.516 C 156.145 184.311,156.302 183.640,156.620 183.026 C 156.939 182.411,157.200 181.584,157.200 181.188 C 157.200 180.791,157.335 180.407,157.500 180.333 C 157.665 180.260,158.362 179.120,159.048 177.800 C 159.734 176.480,160.682 175.221,161.153 175.003 C 161.625 174.784,161.924 174.379,161.818 174.103 C 161.712 173.826,161.804 173.600,162.022 173.600 C 162.241 173.600,162.591 173.150,162.800 172.600 C 163.009 172.050,163.455 171.600,163.790 171.600 C 164.126 171.600,164.400 171.420,164.400 171.200 C 164.400 170.980,165.120 170.080,166.000 169.200 C 166.880 168.320,167.780 167.600,168.000 167.600 C 168.220 167.600,168.400 167.456,168.400 167.281 C 168.400 167.105,169.120 166.212,170.000 165.296 C 170.880 164.380,171.600 163.459,171.600 163.249 C 171.600 163.039,171.742 162.807,171.915 162.733 C 172.088 162.660,172.853 161.790,173.615 160.800 C 174.377 159.810,175.094 158.910,175.208 158.800 C 175.323 158.690,175.634 158.105,175.900 157.500 C 176.165 156.895,176.567 156.400,176.791 156.400 C 177.016 156.400,177.200 156.038,177.200 155.595 C 177.200 155.152,177.362 154.477,177.561 154.095 C 177.760 153.713,178.152 152.590,178.433 151.600 C 178.714 150.610,179.079 149.617,179.244 149.393 C 179.639 148.856,179.564 135.119,179.163 134.591 C 178.992 134.365,178.797 131.154,178.729 127.454 C 178.661 123.754,178.467 120.641,178.296 120.536 C 178.126 120.431,178.120 120.132,178.283 119.872 C 178.655 119.278,178.684 118.264,178.336 117.998 C 178.190 117.888,178.002 115.005,177.918 111.594 C 177.834 108.182,177.653 105.210,177.517 104.990 C 177.381 104.770,177.223 101.532,177.165 97.795 C 177.107 94.058,176.923 90.816,176.757 90.592 C 176.590 90.367,176.386 86.581,176.304 82.178 C 176.221 77.775,176.040 73.988,175.900 73.762 C 175.760 73.536,175.591 70.600,175.523 67.237 C 175.455 63.875,175.265 61.040,175.100 60.938 C 174.935 60.836,174.800 59.876,174.800 58.805 C 174.800 57.587,174.570 56.627,174.186 56.243 C 173.848 55.905,173.580 55.487,173.590 55.314 C 173.601 55.141,172.617 54.946,171.405 54.880 C 170.056 54.807,169.200 54.923,169.200 55.180 C 169.200 55.411,168.843 55.600,168.407 55.600 C 167.620 55.600,167.613 55.997,167.603 101.878 C 167.597 131.450,167.453 148.244,167.204 148.397 C 166.990 148.530,166.888 149.019,166.978 149.484 C 167.255 150.923,165.807 151.774,163.300 151.646 C 162.035 151.581,160.810 150.250,161.076 149.230 C 161.200 148.756,161.102 148.400,160.847 148.400 C 160.520 148.400,160.400 136.165,160.400 103.013 L 160.400 57.627 158.987 56.213 C 156.564 53.791,153.840 54.192,151.300 57.345 C 150.907 57.834,150.800 67.721,150.800 103.752 L 150.800 149.539 149.808 150.718 C 148.736 151.992,146.088 152.145,144.941 150.999 C 144.142 150.199,143.405 146.000,144.064 146.000 C 144.249 146.000,144.400 145.280,144.400 144.400 C 144.400 143.520,144.259 142.800,144.086 142.800 C 143.913 142.800,143.771 142.440,143.771 142.000 C 143.771 141.560,143.913 141.200,144.086 141.200 C 144.259 141.200,144.400 123.020,144.400 100.800 C 144.400 78.580,144.265 60.400,144.100 60.399 C 143.935 60.399,143.761 59.837,143.712 59.151 C 143.439 55.265,139.509 53.386,136.353 55.633 C 133.883 57.392,134.000 54.961,134.000 104.605 C 134.000 147.164,133.958 149.963,133.300 150.759 C 132.124 152.182,128.400 152.204,128.400 150.787 C 128.400 150.391,128.175 149.992,127.900 149.900 C 127.460 149.753,127.224 118.657,127.200 57.531 C 127.199 55.594,123.377 54.138,121.409 55.324 M239.965 55.186 C 239.616 55.396,238.716 55.640,237.965 55.730 C 236.663 55.886,231.220 57.893,230.800 58.372 C 230.387 58.843,228.788 59.600,228.205 59.600 C 227.872 59.600,227.600 59.763,227.600 59.962 C 227.600 60.160,226.495 61.195,225.144 62.262 C 223.793 63.328,222.038 64.901,221.244 65.757 C 220.450 66.614,219.215 67.907,218.500 68.630 C 217.785 69.354,217.200 70.138,217.200 70.373 C 217.200 70.608,217.020 70.800,216.800 70.800 C 216.580 70.800,216.400 70.999,216.400 71.242 C 216.400 71.486,215.860 72.367,215.200 73.200 C 214.540 74.033,214.000 74.837,214.000 74.985 C 214.000 75.134,213.460 76.041,212.800 77.000 C 212.140 77.959,211.600 78.926,211.600 79.148 C 211.600 79.370,211.060 80.593,210.400 81.865 C 209.740 83.137,209.200 84.588,209.200 85.089 C 209.200 85.590,209.031 86.000,208.825 86.000 C 208.619 86.000,208.462 86.315,208.477 86.700 C 208.507 87.471,207.665 91.051,207.231 92.000 C 207.080 92.330,206.907 93.948,206.847 95.596 C 206.788 97.244,206.594 98.774,206.418 98.996 C 206.084 99.416,206.199 109.890,206.565 112.380 C 206.680 113.161,206.817 114.880,206.870 116.200 C 206.923 117.520,207.091 118.780,207.244 119.000 C 207.396 119.220,207.736 120.840,207.998 122.600 C 208.260 124.360,208.723 126.768,209.029 127.952 C 209.334 129.135,209.486 130.260,209.368 130.452 C 209.250 130.643,209.343 130.800,209.576 130.800 C 209.809 130.800,210.000 131.310,210.000 131.933 C 210.000 132.557,210.107 133.174,210.239 133.305 C 210.579 133.646,213.200 141.544,213.200 142.230 C 213.200 142.543,213.380 142.800,213.600 142.800 C 213.820 142.800,214.000 143.066,214.000 143.390 C 214.000 143.715,214.359 144.570,214.799 145.290 C 215.238 146.011,215.598 146.990,215.599 147.467 C 215.599 147.943,215.735 148.393,215.900 148.467 C 216.444 148.708,219.002 154.185,218.905 154.900 C 218.850 155.300,219.069 155.600,219.415 155.600 C 219.764 155.600,220.119 156.096,220.255 156.774 C 220.384 157.420,220.716 158.036,220.992 158.142 C 221.660 158.398,223.600 161.901,223.600 162.850 C 223.600 163.263,223.849 163.600,224.154 163.600 C 224.459 163.600,225.024 164.095,225.410 164.700 C 226.889 167.017,231.891 173.463,233.883 175.617 C 236.219 178.143,237.074 180.213,237.265 183.800 C 237.335 185.120,237.526 186.299,237.689 186.419 C 237.852 186.539,238.054 190.139,238.138 194.419 C 238.222 198.699,238.337 202.380,238.393 202.600 C 238.449 202.820,238.458 203.090,238.413 203.200 C 238.128 203.893,238.121 206.000,238.403 206.000 C 238.591 206.000,238.589 206.540,238.400 207.200 C 238.211 207.860,238.207 208.400,238.393 208.400 C 238.743 208.400,238.730 209.109,238.368 209.800 C 238.253 210.020,238.109 215.508,238.048 221.996 C 237.987 228.483,237.817 233.883,237.669 233.996 C 237.521 234.108,237.339 238.157,237.266 242.994 C 237.192 247.831,237.020 251.967,236.885 252.186 C 236.750 252.405,236.571 255.647,236.488 259.390 C 236.401 263.289,236.158 266.409,235.919 266.697 C 235.627 267.049,235.643 267.369,235.970 267.764 C 236.232 268.080,236.280 268.427,236.078 268.552 C 235.880 268.674,235.681 271.116,235.637 273.978 C 235.594 276.839,235.452 279.590,235.322 280.090 C 235.192 280.591,235.004 283.565,234.905 286.700 C 234.806 289.835,234.601 292.400,234.448 292.400 C 234.296 292.400,234.128 295.408,234.074 299.084 C 234.020 302.760,233.837 305.865,233.666 305.984 C 233.496 306.103,233.310 308.626,233.253 311.592 C 233.184 315.214,232.995 317.085,232.675 317.292 C 232.309 317.529,232.310 317.671,232.679 317.911 C 232.995 318.115,233.031 318.422,232.785 318.811 C 232.580 319.135,232.409 321.839,232.406 324.820 C 232.402 328.384,232.241 330.399,231.937 330.703 C 231.586 331.054,231.598 331.316,231.986 331.783 C 232.268 332.122,232.330 332.400,232.124 332.400 C 231.918 332.400,231.761 333.570,231.775 335.000 C 231.789 336.430,231.935 337.600,232.100 337.600 C 232.265 337.600,232.406 337.915,232.413 338.300 C 232.436 339.579,237.082 343.600,238.536 343.600 C 238.901 343.600,239.201 343.735,239.203 343.900 C 239.210 344.591,241.249 345.020,245.101 345.142 C 249.407 345.277,249.611 345.226,254.538 342.767 C 255.384 342.345,256.251 342.000,256.466 342.000 C 257.058 342.000,257.785 341.145,258.422 339.700 C 258.737 338.985,259.150 338.400,259.339 338.400 C 259.732 338.400,259.438 328.708,259.024 328.039 C 258.875 327.798,258.965 327.600,259.225 327.600 C 259.573 327.600,259.581 327.459,259.257 327.069 C 258.987 326.743,258.779 324.098,258.721 320.238 C 258.668 316.774,258.484 313.852,258.312 313.746 C 258.141 313.640,258.000 311.502,258.000 308.996 C 258.000 306.490,257.824 303.576,257.608 302.520 C 257.392 301.464,257.139 295.470,257.044 289.200 C 256.949 282.930,256.842 277.800,256.805 277.800 C 256.769 277.800,256.678 277.485,256.605 277.100 C 256.531 276.715,256.657 276.400,256.884 276.400 C 257.143 276.400,257.123 276.189,256.830 275.836 C 256.493 275.431,256.485 275.195,256.800 275.000 C 257.091 274.820,257.106 274.569,256.846 274.255 C 256.610 273.971,256.404 268.211,256.331 259.891 C 256.265 252.251,256.089 246.000,255.940 246.000 C 255.719 246.000,255.768 244.854,256.006 244.500 C 256.194 244.219,256.113 242.106,255.900 241.762 C 255.765 241.544,255.610 235.073,255.554 227.383 C 255.498 219.692,255.297 213.191,255.107 212.936 C 254.904 212.663,254.937 212.363,255.187 212.208 C 255.421 212.063,255.480 211.732,255.318 211.472 C 254.850 210.724,254.834 210.000,255.284 210.000 C 255.543 210.000,255.523 209.789,255.230 209.436 C 254.893 209.031,254.885 208.795,255.200 208.600 C 255.488 208.422,255.505 208.168,255.251 207.861 C 255.022 207.586,254.810 201.723,254.735 193.597 C 254.599 178.849,254.747 177.516,256.570 177.040 C 257.007 176.925,257.249 176.716,257.107 176.573 C 256.965 176.431,257.243 175.893,257.724 175.377 C 258.206 174.861,258.818 174.175,259.084 173.853 C 259.351 173.531,259.899 173.027,260.303 172.734 C 260.706 172.440,261.352 171.525,261.737 170.700 C 262.122 169.875,262.599 169.200,262.797 169.200 C 262.995 169.200,263.391 168.767,263.678 168.238 C 263.965 167.709,265.505 165.372,267.100 163.045 C 268.695 160.718,270.000 158.641,270.000 158.430 C 270.000 158.218,270.394 157.769,270.876 157.432 C 271.358 157.094,271.633 156.700,271.488 156.555 C 271.213 156.280,273.974 150.700,274.500 150.467 C 274.665 150.393,274.800 150.110,274.800 149.838 C 274.800 149.565,275.340 148.227,276.000 146.865 C 276.660 145.502,277.206 144.165,277.213 143.894 C 277.219 143.622,277.759 142.325,278.413 141.010 C 279.066 139.696,279.600 138.311,279.600 137.934 C 279.600 137.556,279.790 137.130,280.021 136.987 C 280.253 136.844,280.367 136.518,280.275 136.263 C 280.183 136.009,280.300 135.440,280.535 135.000 C 280.770 134.560,281.000 133.969,281.047 133.686 C 281.322 132.040,282.137 128.900,282.443 128.305 C 282.639 127.923,282.800 127.194,282.800 126.685 C 282.800 126.176,282.964 125.589,283.165 125.380 C 283.515 125.015,283.611 124.306,284.215 117.600 C 284.364 115.950,284.656 114.390,284.864 114.134 C 285.360 113.521,285.235 95.951,284.730 95.327 C 284.519 95.066,284.329 93.761,284.308 92.427 C 284.287 91.092,284.162 90.000,284.032 90.000 C 283.750 90.000,282.800 87.075,282.800 86.206 C 282.800 85.873,282.620 85.600,282.400 85.600 C 282.180 85.600,282.000 85.276,282.000 84.880 C 282.000 84.484,281.825 83.985,281.611 83.771 C 281.398 83.558,281.146 83.027,281.052 82.591 C 280.699 80.952,280.295 80.000,279.953 80.000 C 279.759 80.000,279.596 79.685,279.591 79.300 C 279.586 78.915,279.230 78.150,278.800 77.600 C 278.370 77.050,278.014 76.319,278.009 75.975 C 278.004 75.632,277.640 74.964,277.200 74.492 C 276.760 74.020,276.400 73.522,276.400 73.386 C 276.400 73.020,273.089 68.826,271.436 67.099 C 270.646 66.274,270.000 65.314,270.000 64.966 C 270.000 64.618,269.776 64.408,269.501 64.500 C 269.227 64.591,268.420 64.066,267.709 63.333 C 266.997 62.600,266.269 62.000,266.092 62.000 C 265.915 62.000,265.147 61.467,264.385 60.816 C 263.623 60.165,262.775 59.625,262.500 59.616 C 262.225 59.607,262.000 59.409,262.000 59.176 C 262.000 58.943,261.840 58.851,261.645 58.972 C 261.450 59.093,261.068 58.923,260.796 58.596 C 260.524 58.268,260.056 58.000,259.756 58.000 C 259.455 58.000,258.858 57.699,258.429 57.332 C 257.999 56.964,257.232 56.626,256.724 56.582 C 256.216 56.537,255.260 56.314,254.600 56.088 C 253.940 55.861,252.823 55.497,252.119 55.280 C 250.455 54.765,240.791 54.691,239.965 55.186 M260.774 69.600 C 261.309 70.150,261.870 70.600,262.020 70.600 C 262.170 70.600,262.833 71.179,263.493 71.886 C 264.154 72.593,264.808 73.058,264.947 72.919 C 265.086 72.780,265.200 72.967,265.200 73.333 C 265.200 73.700,265.374 74.000,265.587 74.000 C 265.800 74.000,266.744 75.035,267.685 76.300 C 268.626 77.565,269.536 78.703,269.708 78.830 C 270.283 79.253,274.000 86.891,274.000 87.650 C 274.000 88.063,274.180 88.400,274.400 88.400 C 274.620 88.400,274.800 88.724,274.800 89.120 C 274.800 89.516,274.986 90.026,275.214 90.254 C 275.441 90.481,275.689 91.372,275.765 92.234 C 275.840 93.095,276.003 94.070,276.127 94.400 C 276.826 96.260,277.433 108.800,276.825 108.800 C 276.591 108.800,276.400 109.070,276.400 109.400 C 276.400 109.730,276.548 110.000,276.730 110.000 C 277.053 110.000,276.560 114.821,276.116 116.000 C 275.992 116.330,275.819 117.320,275.731 118.200 C 275.644 119.080,275.465 120.070,275.334 120.400 C 275.202 120.730,275.027 121.523,274.944 122.163 C 274.861 122.803,274.616 123.540,274.400 123.800 C 274.184 124.061,274.085 124.352,274.181 124.448 C 274.277 124.544,274.180 125.337,273.965 126.211 C 273.750 127.085,273.480 128.250,273.364 128.800 C 273.248 129.350,272.984 129.860,272.776 129.933 C 272.569 130.007,272.400 130.382,272.400 130.767 C 272.400 131.152,272.275 131.591,272.123 131.744 C 271.971 131.896,271.787 132.407,271.715 132.879 C 271.643 133.351,271.386 133.976,271.143 134.269 C 270.901 134.561,270.835 134.800,270.997 134.800 C 271.159 134.800,271.001 135.244,270.646 135.786 C 270.291 136.328,270.000 136.976,270.000 137.225 C 270.000 138.031,266.729 144.400,266.315 144.400 C 266.095 144.400,266.011 144.651,266.128 144.957 C 266.246 145.264,265.905 145.925,265.371 146.427 C 264.837 146.929,264.400 147.557,264.400 147.824 C 264.400 148.737,261.551 153.382,260.337 154.447 C 259.932 154.803,259.600 155.356,259.600 155.677 C 259.600 156.306,257.725 158.258,257.416 157.950 C 257.314 157.847,257.628 157.156,258.115 156.414 C 259.593 154.160,259.743 153.911,261.617 150.600 C 262.613 148.840,263.828 146.545,264.316 145.500 C 264.804 144.455,265.360 143.600,265.551 143.600 C 265.742 143.600,266.009 142.903,266.145 142.052 C 266.281 141.201,266.667 140.277,267.002 139.999 C 267.337 139.721,267.566 139.292,267.511 139.047 C 267.423 138.650,267.739 137.659,268.800 135.000 C 269.448 133.377,269.954 131.747,270.446 129.700 C 270.724 128.545,271.079 127.600,271.235 127.600 C 271.392 127.600,271.613 126.835,271.727 125.900 C 272.145 122.485,272.453 120.587,272.684 120.000 C 272.814 119.670,272.997 118.412,273.091 117.205 C 273.185 115.997,273.472 114.872,273.731 114.705 C 274.080 114.478,274.061 114.311,273.657 114.050 C 273.327 113.837,273.270 113.604,273.512 113.454 C 273.969 113.172,274.017 99.116,273.563 98.800 C 273.404 98.689,273.223 97.339,273.160 95.800 C 273.096 94.260,272.899 92.802,272.723 92.560 C 272.546 92.317,272.368 91.597,272.328 90.960 C 272.288 90.322,272.119 89.616,271.953 89.390 C 271.787 89.165,271.587 88.535,271.508 87.990 C 271.428 87.446,271.153 86.619,270.896 86.153 C 270.639 85.687,270.516 85.217,270.624 85.110 C 270.731 85.002,270.556 84.695,270.233 84.428 C 269.911 84.160,269.746 83.685,269.867 83.371 C 269.987 83.057,269.900 82.800,269.672 82.800 C 269.445 82.800,268.784 81.829,268.203 80.642 C 267.622 79.455,266.709 77.890,266.174 77.164 C 265.638 76.438,265.200 75.707,265.200 75.540 C 265.200 75.372,263.677 73.691,261.814 71.803 C 259.952 69.916,258.737 68.423,259.114 68.486 C 259.492 68.549,260.238 69.050,260.774 69.600 M256.703 159.296 C 256.244 160.113,254.855 161.600,254.551 161.600 C 254.482 161.600,254.529 161.330,254.655 161.000 C 254.782 160.670,255.046 160.400,255.243 160.400 C 255.439 160.400,255.600 160.139,255.600 159.820 C 255.600 159.501,255.915 159.056,256.300 158.832 C 257.263 158.271,257.273 158.283,256.703 159.296 " stroke="none" fill="#fcc434" fill-rule="evenodd"></path><path id="path1" d="" stroke="none" fill="#100c434" fill-rule="evenodd"></path><path id="path2" d="" stroke="none" fill="#100c434" fill-rule="evenodd"></path><path id="path3" d="" stroke="none" fill="#100c434" fill-rule="evenodd"></path><path id="path4" d="" stroke="none" fill="#100c434" fill-rule="evenodd"></path></g></svg>